<svg id="visual" viewBox="0 0 900 200" width="900" height="200" xmlns="http://www.w3.org/2000/svg" xmlns:xlink="http://www.w3.org/1999/xlink" version="1.1"><rect x="0" y="0" width="900" height="200" fill="#FFFBE9"></rect><path d="M0 137L21.5 135.8C43 134.7 86 132.3 128.8 125.2C171.7 118 214.3 106 257.2 112C300 118 343 142 385.8 133.5C428.7 125 471.3 84 514.2 71.8C557 59.7 600 76.3 642.8 78.2C685.7 80 728.3 67 771.2 66.7C814 66.3 857 78.7 878.5 84.8L900 91L900 201L878.5 201C857 201 814 201 771.2 201C728.3 201 685.7 201 642.8 201C600 201 557 201 514.2 201C471.3 201 428.7 201 385.8 201C343 201 300 201 257.2 201C214.3 201 171.7 201 128.8 201C86 201 43 201 21.5 201L0 201Z" fill="#3C6255" stroke-linecap="round" stroke-linejoin="miter"></path></svg>