<svg id="visual" viewBox="0 0 900 600" width="900" height="600" xmlns="http://www.w3.org/2000/svg" xmlns:xlink="http://www.w3.org/1999/xlink" version="1.1"><rect x="0" y="0" width="900" height="600" fill="#FFFBE9"></rect><path d="M0 265L13.7 263.2C27.3 261.3 54.7 257.7 82 250C109.3 242.3 136.7 230.7 163.8 245.5C191 260.3 218 301.7 245.2 300.8C272.3 300 299.7 257 327 255.5C354.3 254 381.7 294 409 294.2C436.3 294.3 463.7 254.7 491 228.3C518.3 202 545.7 189 573 190.5C600.3 192 627.7 208 654.8 230.5C682 253 709 282 736.2 304C763.3 326 790.7 341 818 324.3C845.3 307.7 872.7 259.3 886.3 235.2L900 211L900 601L886.3 601C872.7 601 845.3 601 818 601C790.7 601 763.3 601 736.2 601C709 601 682 601 654.8 601C627.7 601 600.3 601 573 601C545.7 601 518.3 601 491 601C463.7 601 436.3 601 409 601C381.7 601 354.3 601 327 601C299.7 601 272.3 601 245.2 601C218 601 191 601 163.8 601C136.7 601 109.3 601 82 601C54.7 601 27.3 601 13.7 601L0 601Z" fill="#a6bb8d"></path><path d="M0 262L13.7 276.3C27.3 290.7 54.7 319.3 82 341.8C109.3 364.3 136.7 380.7 163.8 361.7C191 342.7 218 288.3 245.2 281.7C272.3 275 299.7 316 327 336.7C354.3 357.3 381.7 357.7 409 365.3C436.3 373 463.7 388 491 393.7C518.3 399.3 545.7 395.7 573 372C600.3 348.3 627.7 304.7 654.8 303.8C682 303 709 345 736.2 360.7C763.3 376.3 790.7 365.7 818 366.3C845.3 367 872.7 379 886.3 385L900 391L900 601L886.3 601C872.7 601 845.3 601 818 601C790.7 601 763.3 601 736.2 601C709 601 682 601 654.8 601C627.7 601 600.3 601 573 601C545.7 601 518.3 601 491 601C463.7 601 436.3 601 409 601C381.7 601 354.3 601 327 601C299.7 601 272.3 601 245.2 601C218 601 191 601 163.8 601C136.7 601 109.3 601 82 601C54.7 601 27.3 601 13.7 601L0 601Z" fill="#87a57f"></path><path d="M0 433L13.7 419.5C27.3 406 54.7 379 82 369.2C109.3 359.3 136.7 366.7 163.8 368.3C191 370 218 366 245.2 374.3C272.3 382.7 299.7 403.3 327 401.3C354.3 399.3 381.7 374.7 409 370C436.3 365.3 463.7 380.7 491 387.2C518.3 393.7 545.7 391.3 573 377.3C600.3 363.3 627.7 337.7 654.8 324.2C682 310.7 709 309.3 736.2 320.5C763.3 331.7 790.7 355.3 818 374.7C845.3 394 872.7 409 886.3 416.5L900 424L900 601L886.3 601C872.7 601 845.3 601 818 601C790.7 601 763.3 601 736.2 601C709 601 682 601 654.8 601C627.7 601 600.3 601 573 601C545.7 601 518.3 601 491 601C463.7 601 436.3 601 409 601C381.7 601 354.3 601 327 601C299.7 601 272.3 601 245.2 601C218 601 191 601 163.8 601C136.7 601 109.3 601 82 601C54.7 601 27.3 601 13.7 601L0 601Z" fill="#6b8e71"></path><path d="M0 453L13.7 448.5C27.3 444 54.7 435 82 431C109.3 427 136.7 428 163.8 433.2C191 438.3 218 447.7 245.2 448.2C272.3 448.7 299.7 440.3 327 443.2C354.3 446 381.7 460 409 454.3C436.3 448.7 463.7 423.3 491 422.3C518.3 421.3 545.7 444.7 573 443.5C600.3 442.3 627.7 416.7 654.8 419.5C682 422.3 709 453.7 736.2 470C763.3 486.3 790.7 487.7 818 484.2C845.3 480.7 872.7 472.3 886.3 468.2L900 464L900 601L886.3 601C872.7 601 845.3 601 818 601C790.7 601 763.3 601 736.2 601C709 601 682 601 654.8 601C627.7 601 600.3 601 573 601C545.7 601 518.3 601 491 601C463.7 601 436.3 601 409 601C381.7 601 354.3 601 327 601C299.7 601 272.3 601 245.2 601C218 601 191 601 163.8 601C136.7 601 109.3 601 82 601C54.7 601 27.3 601 13.7 601L0 601Z" fill="#527863"></path><path d="M0 494L13.7 488.5C27.3 483 54.7 472 82 475.2C109.3 478.3 136.7 495.7 163.8 507.7C191 519.7 218 526.3 245.2 528.3C272.3 530.3 299.7 527.7 327 522.3C354.3 517 381.7 509 409 507.7C436.3 506.3 463.7 511.7 491 506.8C518.3 502 545.7 487 573 481C600.3 475 627.7 478 654.8 485.8C682 493.7 709 506.3 736.2 514C763.3 521.7 790.7 524.3 818 521.7C845.3 519 872.7 511 886.3 507L900 503L900 601L886.3 601C872.7 601 845.3 601 818 601C790.7 601 763.3 601 736.2 601C709 601 682 601 654.8 601C627.7 601 600.3 601 573 601C545.7 601 518.3 601 491 601C463.7 601 436.3 601 409 601C381.7 601 354.3 601 327 601C299.7 601 272.3 601 245.2 601C218 601 191 601 163.8 601C136.7 601 109.3 601 82 601C54.7 601 27.3 601 13.7 601L0 601Z" fill="#3c6255"></path></svg>