<svg id="visual" viewBox="0 0 900 200" width="900" height="200" xmlns="http://www.w3.org/2000/svg" xmlns:xlink="http://www.w3.org/1999/xlink" version="1.1"><rect x="0" y="0" width="900" height="200" fill="#FFFBE9"></rect><path d="M0 50L21.5 66C43 82 86 114 128.8 125.7C171.7 137.3 214.3 128.7 257.2 125.2C300 121.7 343 123.3 385.8 125.2C428.7 127 471.3 129 514.2 131.3C557 133.7 600 136.3 642.8 137.5C685.7 138.7 728.3 138.3 771.2 127.5C814 116.7 857 95.3 878.5 84.7L900 74L900 0L878.5 0C857 0 814 0 771.2 0C728.3 0 685.7 0 642.8 0C600 0 557 0 514.2 0C471.3 0 428.7 0 385.8 0C343 0 300 0 257.2 0C214.3 0 171.7 0 128.8 0C86 0 43 0 21.5 0L0 0Z" fill="#3C6255" stroke-linecap="round" stroke-linejoin="miter"></path></svg>