<svg id="visual" viewBox="0 0 900 200" width="900" height="200" xmlns="http://www.w3.org/2000/svg" xmlns:xlink="http://www.w3.org/1999/xlink" version="1.1"><rect x="0" y="0" width="900" height="200" fill="#FFFBE9"></rect><path d="M0 147L21.5 148.2C43 149.3 86 151.7 128.8 153C171.7 154.3 214.3 154.7 257.2 149.2C300 143.7 343 132.3 385.8 131.2C428.7 130 471.3 139 514.2 133.5C557 128 600 108 642.8 106.8C685.7 105.7 728.3 123.3 771.2 133.2C814 143 857 145 878.5 146L900 147L900 0L878.5 0C857 0 814 0 771.2 0C728.3 0 685.7 0 642.8 0C600 0 557 0 514.2 0C471.3 0 428.7 0 385.8 0C343 0 300 0 257.2 0C214.3 0 171.7 0 128.8 0C86 0 43 0 21.5 0L0 0Z" fill="#fffbe9"></path><path d="M0 89L21.5 87.2C43 85.3 86 81.7 128.8 78C171.7 74.3 214.3 70.7 257.2 76.8C300 83 343 99 385.8 100C428.7 101 471.3 87 514.2 82.8C557 78.7 600 84.3 642.8 86.8C685.7 89.3 728.3 88.7 771.2 84.5C814 80.3 857 72.7 878.5 68.8L900 65L900 0L878.5 0C857 0 814 0 771.2 0C728.3 0 685.7 0 642.8 0C600 0 557 0 514.2 0C471.3 0 428.7 0 385.8 0C343 0 300 0 257.2 0C214.3 0 171.7 0 128.8 0C86 0 43 0 21.5 0L0 0Z" fill="#bec5b0"></path><path d="M0 64L21.5 64.8C43 65.7 86 67.3 128.8 68.3C171.7 69.3 214.3 69.7 257.2 65.8C300 62 343 54 385.8 54.7C428.7 55.3 471.3 64.7 514.2 69.3C557 74 600 74 642.8 69.2C685.7 64.3 728.3 54.7 771.2 52C814 49.3 857 53.7 878.5 55.8L900 58L900 0L878.5 0C857 0 814 0 771.2 0C728.3 0 685.7 0 642.8 0C600 0 557 0 514.2 0C471.3 0 428.7 0 385.8 0C343 0 300 0 257.2 0C214.3 0 171.7 0 128.8 0C86 0 43 0 21.5 0L0 0Z" fill="#7c927e"></path><path d="M0 34L21.5 32.2C43 30.3 86 26.7 128.8 23.3C171.7 20 214.3 17 257.2 16.2C300 15.3 343 16.7 385.8 21.3C428.7 26 471.3 34 514.2 35.2C557 36.3 600 30.7 642.8 31C685.7 31.3 728.3 37.7 771.2 36.5C814 35.3 857 26.7 878.5 22.3L900 18L900 0L878.5 0C857 0 814 0 771.2 0C728.3 0 685.7 0 642.8 0C600 0 557 0 514.2 0C471.3 0 428.7 0 385.8 0C343 0 300 0 257.2 0C214.3 0 171.7 0 128.8 0C86 0 43 0 21.5 0L0 0Z" fill="#3c6255"></path></svg>