<svg id="visual" viewBox="0 0 900 300" width="900" height="300" xmlns="http://www.w3.org/2000/svg" xmlns:xlink="http://www.w3.org/1999/xlink" version="1.1"><rect x="0" y="0" width="900" height="300" fill="#191817"></rect><path d="M0 200L25 195.5C50 191 100 182 150 180C200 178 250 183 300 186.7C350 190.3 400 192.7 450 182C500 171.3 550 147.7 600 147.7C650 147.7 700 171.3 750 180.7C800 190 850 185 875 182.5L900 180L900 0L875 0C850 0 800 0 750 0C700 0 650 0 600 0C550 0 500 0 450 0C400 0 350 0 300 0C250 0 200 0 150 0C100 0 50 0 25 0L0 0Z" fill="#7b9218" stroke-linecap="round" stroke-linejoin="miter"></path></svg>