<svg id="visual" viewBox="0 0 900 300" width="900" height="300" xmlns="http://www.w3.org/2000/svg" xmlns:xlink="http://www.w3.org/1999/xlink" version="1.1"><rect x="0" y="0" width="900" height="300" fill="#191817"></rect><path d="M0 229L37.5 238C75 247 150 265 225 275.2C300 285.3 375 287.7 450 277.5C525 267.3 600 244.7 675 244.2C750 243.7 825 265.3 862.5 276.2L900 287L900 301L862.5 301C825 301 750 301 675 301C600 301 525 301 450 301C375 301 300 301 225 301C150 301 75 301 37.5 301L0 301Z" fill="#7b9218" stroke-linecap="round" stroke-linejoin="miter"></path></svg>