<svg id="visual" viewBox="0 0 900 300" width="900" height="300" xmlns="http://www.w3.org/2000/svg" xmlns:xlink="http://www.w3.org/1999/xlink" version="1.1"><rect x="0" y="0" width="900" height="300" fill="#191817"></rect><path d="M0 86L12.5 82.7C25 79.3 50 72.7 75 75.8C100 79 125 92 150 93.2C175 94.3 200 83.7 225 87.3C250 91 275 109 300 110C325 111 350 95 375 95.7C400 96.3 425 113.7 450 122.5C475 131.3 500 131.7 525 128.2C550 124.7 575 117.3 600 104.8C625 92.3 650 74.7 675 74.5C700 74.3 725 91.7 750 96.2C775 100.7 800 92.3 825 89C850 85.7 875 87.3 887.5 88.2L900 89L900 301L887.5 301C875 301 850 301 825 301C800 301 775 301 750 301C725 301 700 301 675 301C650 301 625 301 600 301C575 301 550 301 525 301C500 301 475 301 450 301C425 301 400 301 375 301C350 301 325 301 300 301C275 301 250 301 225 301C200 301 175 301 150 301C125 301 100 301 75 301C50 301 25 301 12.5 301L0 301Z" fill="#39553f"></path><path d="M0 159L12.5 155.7C25 152.3 50 145.7 75 138.2C100 130.7 125 122.3 150 118.5C175 114.7 200 115.3 225 122.7C250 130 275 144 300 144.3C325 144.7 350 131.3 375 132C400 132.7 425 147.3 450 151C475 154.7 500 147.3 525 146.2C550 145 575 150 600 153C625 156 650 157 675 148.5C700 140 725 122 750 114.7C775 107.3 800 110.7 825 110C850 109.3 875 104.7 887.5 102.3L900 100L900 301L887.5 301C875 301 850 301 825 301C800 301 775 301 750 301C725 301 700 301 675 301C650 301 625 301 600 301C575 301 550 301 525 301C500 301 475 301 450 301C425 301 400 301 375 301C350 301 325 301 300 301C275 301 250 301 225 301C200 301 175 301 150 301C125 301 100 301 75 301C50 301 25 301 12.5 301L0 301Z" fill="#3e623e"></path><path d="M0 182L12.5 181C25 180 50 178 75 177.3C100 176.7 125 177.3 150 179C175 180.7 200 183.3 225 181.7C250 180 275 174 300 171C325 168 350 168 375 166.7C400 165.3 425 162.7 450 164.2C475 165.7 500 171.3 525 169.3C550 167.3 575 157.7 600 159.5C625 161.3 650 174.7 675 176.2C700 177.7 725 167.3 750 166.2C775 165 800 173 825 175.5C850 178 875 175 887.5 173.5L900 172L900 301L887.5 301C875 301 850 301 825 301C800 301 775 301 750 301C725 301 700 301 675 301C650 301 625 301 600 301C575 301 550 301 525 301C500 301 475 301 450 301C425 301 400 301 375 301C350 301 325 301 300 301C275 301 250 301 225 301C200 301 175 301 150 301C125 301 100 301 75 301C50 301 25 301 12.5 301L0 301Z" fill="#486f3a"></path><path d="M0 206L12.5 203.3C25 200.7 50 195.3 75 192.3C100 189.3 125 188.7 150 185.2C175 181.7 200 175.3 225 177.7C250 180 275 191 300 199C325 207 350 212 375 213.5C400 215 425 213 450 210.5C475 208 500 205 525 199C550 193 575 184 600 183.5C625 183 650 191 675 192.7C700 194.3 725 189.7 750 191.2C775 192.7 800 200.3 825 199.5C850 198.7 875 189.3 887.5 184.7L900 180L900 301L887.5 301C875 301 850 301 825 301C800 301 775 301 750 301C725 301 700 301 675 301C650 301 625 301 600 301C575 301 550 301 525 301C500 301 475 301 450 301C425 301 400 301 375 301C350 301 325 301 300 301C275 301 250 301 225 301C200 301 175 301 150 301C125 301 100 301 75 301C50 301 25 301 12.5 301L0 301Z" fill="#557b33"></path><path d="M0 244L12.5 239.5C25 235 50 226 75 222C100 218 125 219 150 223.7C175 228.3 200 236.7 225 234.5C250 232.3 275 219.7 300 218.7C325 217.7 350 228.3 375 230.7C400 233 425 227 450 226.2C475 225.3 500 229.7 525 232.5C550 235.3 575 236.7 600 234.3C625 232 650 226 675 226C700 226 725 232 750 236C775 240 800 242 825 242.8C850 243.7 875 243.3 887.5 243.2L900 243L900 301L887.5 301C875 301 850 301 825 301C800 301 775 301 750 301C725 301 700 301 675 301C650 301 625 301 600 301C575 301 550 301 525 301C500 301 475 301 450 301C425 301 400 301 375 301C350 301 325 301 300 301C275 301 250 301 225 301C200 301 175 301 150 301C125 301 100 301 75 301C50 301 25 301 12.5 301L0 301Z" fill="#668729"></path><path d="M0 263L12.5 261.2C25 259.3 50 255.7 75 256C100 256.3 125 260.7 150 263.2C175 265.7 200 266.3 225 262.2C250 258 275 249 300 245C325 241 350 242 375 244.3C400 246.7 425 250.3 450 250.3C475 250.3 500 246.7 525 247C550 247.3 575 251.7 600 251.7C625 251.7 650 247.3 675 245.7C700 244 725 245 750 249.7C775 254.3 800 262.7 825 264.5C850 266.3 875 261.7 887.5 259.3L900 257L900 301L887.5 301C875 301 850 301 825 301C800 301 775 301 750 301C725 301 700 301 675 301C650 301 625 301 600 301C575 301 550 301 525 301C500 301 475 301 450 301C425 301 400 301 375 301C350 301 325 301 300 301C275 301 250 301 225 301C200 301 175 301 150 301C125 301 100 301 75 301C50 301 25 301 12.5 301L0 301Z" fill="#7b9218"></path></svg>