<svg id="visual" viewBox="0 0 900 300" width="900" height="300" xmlns="http://www.w3.org/2000/svg" xmlns:xlink="http://www.w3.org/1999/xlink" version="1.1"><rect x="0" y="0" width="900" height="300" fill="#191817"></rect><path d="M0 193L12.5 191.2C25 189.3 50 185.7 75 187.2C100 188.7 125 195.3 150 196C175 196.7 200 191.3 225 193.2C250 195 275 204 300 204.5C325 205 350 197 375 197.3C400 197.7 425 206.3 450 210.8C475 215.3 500 215.7 525 214C550 212.3 575 208.7 600 202.3C625 196 650 187 675 186.8C700 186.7 725 195.3 750 197.5C775 199.7 800 195.3 825 193.7C850 192 875 193 887.5 193.5L900 194L900 301L887.5 301C875 301 850 301 825 301C800 301 775 301 750 301C725 301 700 301 675 301C650 301 625 301 600 301C575 301 550 301 525 301C500 301 475 301 450 301C425 301 400 301 375 301C350 301 325 301 300 301C275 301 250 301 225 301C200 301 175 301 150 301C125 301 100 301 75 301C50 301 25 301 12.5 301L0 301Z" fill="#39553f"></path><path d="M0 229L12.5 227.3C25 225.7 50 222.3 75 218.5C100 214.7 125 210.3 150 208.3C175 206.3 200 206.7 225 210.5C250 214.3 275 221.7 300 221.8C325 222 350 215 375 215.2C400 215.3 425 222.7 450 224.5C475 226.3 500 222.7 525 222.2C550 221.7 575 224.3 600 226C625 227.7 650 228.3 675 224.2C700 220 725 211 750 207.2C775 203.3 800 204.7 825 204.2C850 203.7 875 201.3 887.5 200.2L900 199L900 301L887.5 301C875 301 850 301 825 301C800 301 775 301 750 301C725 301 700 301 675 301C650 301 625 301 600 301C575 301 550 301 525 301C500 301 475 301 450 301C425 301 400 301 375 301C350 301 325 301 300 301C275 301 250 301 225 301C200 301 175 301 150 301C125 301 100 301 75 301C50 301 25 301 12.5 301L0 301Z" fill="#3e623e"></path><path d="M0 241L12.5 240.5C25 240 50 239 75 238.7C100 238.3 125 238.7 150 239.5C175 240.3 200 241.7 225 240.7C250 239.7 275 236.3 300 234.7C325 233 350 233 375 232.5C400 232 425 231 450 231.8C475 232.7 500 235.3 525 234.2C550 233 575 228 600 228.8C625 229.7 650 236.3 675 237.2C700 238 725 233 750 232.5C775 232 800 236 825 237.2C850 238.3 875 236.7 887.5 235.8L900 235L900 301L887.5 301C875 301 850 301 825 301C800 301 775 301 750 301C725 301 700 301 675 301C650 301 625 301 600 301C575 301 550 301 525 301C500 301 475 301 450 301C425 301 400 301 375 301C350 301 325 301 300 301C275 301 250 301 225 301C200 301 175 301 150 301C125 301 100 301 75 301C50 301 25 301 12.5 301L0 301Z" fill="#486f3a"></path><path d="M0 252L12.5 250.7C25 249.3 50 246.7 75 245.2C100 243.7 125 243.3 150 241.7C175 240 200 237 225 238.3C250 239.7 275 245.3 300 249.3C325 253.3 350 255.7 375 256.3C400 257 425 256 450 254.8C475 253.7 500 252.3 525 249.3C550 246.3 575 241.7 600 241.3C625 241 650 245 675 245.8C700 246.7 725 244.3 750 245C775 245.7 800 249.3 825 248.8C850 248.3 875 243.7 887.5 241.3L900 239L900 301L887.5 301C875 301 850 301 825 301C800 301 775 301 750 301C725 301 700 301 675 301C650 301 625 301 600 301C575 301 550 301 525 301C500 301 475 301 450 301C425 301 400 301 375 301C350 301 325 301 300 301C275 301 250 301 225 301C200 301 175 301 150 301C125 301 100 301 75 301C50 301 25 301 12.5 301L0 301Z" fill="#557b33"></path><path d="M0 271L12.5 268.8C25 266.7 50 262.3 75 260.5C100 258.7 125 259.3 150 261.7C175 264 200 268 225 266.8C250 265.7 275 259.3 300 258.8C325 258.3 350 263.7 375 264.8C400 266 425 263 450 262.7C475 262.3 500 264.7 525 266C550 267.3 575 267.7 600 266.5C625 265.3 650 262.7 675 262.8C700 263 725 266 750 267.8C775 269.7 800 270.3 825 270.7C850 271 875 271 887.5 271L900 271L900 301L887.5 301C875 301 850 301 825 301C800 301 775 301 750 301C725 301 700 301 675 301C650 301 625 301 600 301C575 301 550 301 525 301C500 301 475 301 450 301C425 301 400 301 375 301C350 301 325 301 300 301C275 301 250 301 225 301C200 301 175 301 150 301C125 301 100 301 75 301C50 301 25 301 12.5 301L0 301Z" fill="#668729"></path><path d="M0 281L12.5 280C25 279 50 277 75 277.2C100 277.3 125 279.7 150 281C175 282.3 200 282.7 225 280.5C250 278.3 275 273.7 300 271.7C325 269.7 350 270.3 375 271.5C400 272.7 425 274.3 450 274.3C475 274.3 500 272.7 525 272.8C550 273 575 275 600 275C625 275 650 273 675 272.2C700 271.3 725 271.7 750 274C775 276.3 800 280.7 825 281.7C850 282.7 875 280.3 887.5 279.2L900 278L900 301L887.5 301C875 301 850 301 825 301C800 301 775 301 750 301C725 301 700 301 675 301C650 301 625 301 600 301C575 301 550 301 525 301C500 301 475 301 450 301C425 301 400 301 375 301C350 301 325 301 300 301C275 301 250 301 225 301C200 301 175 301 150 301C125 301 100 301 75 301C50 301 25 301 12.5 301L0 301Z" fill="#7b9218"></path></svg>