<svg id="visual" viewBox="0 0 900 300" width="900" height="300" xmlns="http://www.w3.org/2000/svg" xmlns:xlink="http://www.w3.org/1999/xlink" version="1.1"><rect x="0" y="0" width="900" height="300" fill="#191817"></rect><path d="M0 212L12.5 215.3C25 218.7 50 225.3 75 222.2C100 219 125 206 150 204.8C175 203.7 200 214.3 225 210.7C250 207 275 189 300 188C325 187 350 203 375 202.3C400 201.7 425 184.3 450 175.5C475 166.7 500 166.3 525 169.8C550 173.3 575 180.7 600 193.2C625 205.7 650 223.3 675 223.5C700 223.7 725 206.3 750 201.8C775 197.3 800 205.7 825 209C850 212.3 875 210.7 887.5 209.8L900 209L900 0L887.5 0C875 0 850 0 825 0C800 0 775 0 750 0C725 0 700 0 675 0C650 0 625 0 600 0C575 0 550 0 525 0C500 0 475 0 450 0C425 0 400 0 375 0C350 0 325 0 300 0C275 0 250 0 225 0C200 0 175 0 150 0C125 0 100 0 75 0C50 0 25 0 12.5 0L0 0Z" fill="#39553f"></path><path d="M0 139L12.5 142.3C25 145.7 50 152.3 75 159.8C100 167.3 125 175.7 150 179.5C175 183.3 200 182.7 225 175.3C250 168 275 154 300 153.7C325 153.3 350 166.7 375 166C400 165.3 425 150.7 450 147C475 143.3 500 150.7 525 151.8C550 153 575 148 600 145C625 142 650 141 675 149.5C700 158 725 176 750 183.3C775 190.7 800 187.3 825 188C850 188.7 875 193.3 887.5 195.7L900 198L900 0L887.5 0C875 0 850 0 825 0C800 0 775 0 750 0C725 0 700 0 675 0C650 0 625 0 600 0C575 0 550 0 525 0C500 0 475 0 450 0C425 0 400 0 375 0C350 0 325 0 300 0C275 0 250 0 225 0C200 0 175 0 150 0C125 0 100 0 75 0C50 0 25 0 12.5 0L0 0Z" fill="#3e623e"></path><path d="M0 116L12.5 117C25 118 50 120 75 120.7C100 121.3 125 120.7 150 119C175 117.3 200 114.7 225 116.3C250 118 275 124 300 127C325 130 350 130 375 131.3C400 132.7 425 135.3 450 133.8C475 132.3 500 126.7 525 128.7C550 130.7 575 140.3 600 138.5C625 136.7 650 123.3 675 121.8C700 120.3 725 130.7 750 131.8C775 133 800 125 825 122.5C850 120 875 123 887.5 124.5L900 126L900 0L887.5 0C875 0 850 0 825 0C800 0 775 0 750 0C725 0 700 0 675 0C650 0 625 0 600 0C575 0 550 0 525 0C500 0 475 0 450 0C425 0 400 0 375 0C350 0 325 0 300 0C275 0 250 0 225 0C200 0 175 0 150 0C125 0 100 0 75 0C50 0 25 0 12.5 0L0 0Z" fill="#486f3a"></path><path d="M0 92L12.5 94.7C25 97.3 50 102.7 75 105.7C100 108.7 125 109.3 150 112.8C175 116.3 200 122.7 225 120.3C250 118 275 107 300 99C325 91 350 86 375 84.5C400 83 425 85 450 87.5C475 90 500 93 525 99C550 105 575 114 600 114.5C625 115 650 107 675 105.3C700 103.7 725 108.3 750 106.8C775 105.3 800 97.7 825 98.5C850 99.3 875 108.7 887.5 113.3L900 118L900 0L887.5 0C875 0 850 0 825 0C800 0 775 0 750 0C725 0 700 0 675 0C650 0 625 0 600 0C575 0 550 0 525 0C500 0 475 0 450 0C425 0 400 0 375 0C350 0 325 0 300 0C275 0 250 0 225 0C200 0 175 0 150 0C125 0 100 0 75 0C50 0 25 0 12.5 0L0 0Z" fill="#557b33"></path><path d="M0 54L12.5 58.5C25 63 50 72 75 76C100 80 125 79 150 74.3C175 69.7 200 61.3 225 63.5C250 65.7 275 78.3 300 79.3C325 80.3 350 69.7 375 67.3C400 65 425 71 450 71.8C475 72.7 500 68.3 525 65.5C550 62.7 575 61.3 600 63.7C625 66 650 72 675 72C700 72 725 66 750 62C775 58 800 56 825 55.2C850 54.3 875 54.7 887.5 54.8L900 55L900 0L887.5 0C875 0 850 0 825 0C800 0 775 0 750 0C725 0 700 0 675 0C650 0 625 0 600 0C575 0 550 0 525 0C500 0 475 0 450 0C425 0 400 0 375 0C350 0 325 0 300 0C275 0 250 0 225 0C200 0 175 0 150 0C125 0 100 0 75 0C50 0 25 0 12.5 0L0 0Z" fill="#668729"></path><path d="M0 35L12.5 36.8C25 38.7 50 42.3 75 42C100 41.7 125 37.3 150 34.8C175 32.3 200 31.7 225 35.8C250 40 275 49 300 53C325 57 350 56 375 53.7C400 51.3 425 47.7 450 47.7C475 47.7 500 51.3 525 51C550 50.7 575 46.3 600 46.3C625 46.3 650 50.7 675 52.3C700 54 725 53 750 48.3C775 43.7 800 35.3 825 33.5C850 31.7 875 36.3 887.5 38.7L900 41L900 0L887.5 0C875 0 850 0 825 0C800 0 775 0 750 0C725 0 700 0 675 0C650 0 625 0 600 0C575 0 550 0 525 0C500 0 475 0 450 0C425 0 400 0 375 0C350 0 325 0 300 0C275 0 250 0 225 0C200 0 175 0 150 0C125 0 100 0 75 0C50 0 25 0 12.5 0L0 0Z" fill="#7b9218"></path></svg>